<?xml version="1.0" encoding="utf-8"?>
<!-- Generator: Adobe Illustrator 23.0.1, SVG Export Plug-In . SVG Version: 6.00 Build 0)  -->
<svg version="1.1" xmlns="http://www.w3.org/2000/svg" xmlns:xlink="http://www.w3.org/1999/xlink" x="0px" y="0px"
	 viewBox="0 0 841.89 595.28" style="enable-background:new 0 0 841.89 595.28;" xml:space="preserve">
<style type="text/css">
	.st0{fill:#8B8B8B;}
	.st1{fill:#9C9C9C;}
	.st2{fill:#FEFEFE;}
	.st3{fill:#547DBE;}
	.st4{fill:#C2C2C2;}
	.st5{fill:#C2C6D1;}
	.st6{fill:#3767B0;}
	.st7{fill:#255FDB;}
	.st8{fill:#4285F4;}
	.st9{fill:#91BFFF;}
	.st10{fill:#C4E1FF;}
	.st11{fill:#F5F5F5;}
	.st12{fill:#FFFFFF;fill-opacity:0.2;}
	.st13{fill:#1A237E;fill-opacity:0.2;}
	.st14{fill:url(#SVGID_1_);fill-opacity:0.1;}
</style>
<g id="Layer_1">
	<path class="st0" d="M410.33,392.98c-2.37-2.32-4.83-4.56-7.08-6.99c-7.44-8.03-15.44-15.49-23.01-23.38
		c-1.92-2-3.81-4.02-5.74-6.01c-0.17-0.17-0.5-0.35-0.16-0.66c1.08-0.09,1.66,0.77,2.37,1.32c5.17,3.98,10.73,7.26,16.76,9.76
		c0.26,0.11,0.53,0.14,0.8,0.21c5.82,2.24,11.79,3.93,17.99,4.74c10.48,1.37,20.8,0.62,30.93-2.4c10.37-3.09,19.67-8.13,27.82-15.26
		c1.67-1.46,3.33-2.94,4.88-4.53c0.42-0.43,0.9-0.85,0.95-1.52c5.54-4.87,9.08-11.16,12.35-17.63c0.28-0.54,0.55-1.09,0.67-1.69
		c2.09-4.49,3.72-9.13,4.8-13.97c1.09-4.47,1.79-8.99,1.87-13.6c0.03-1.8,0.72-3.6-0.02-5.4c-0.05-5.11-0.64-10.16-1.99-15.1
		c-0.44-4.73-2.35-9.01-4.2-13.28c-2.22-5.1-4.95-9.94-8.36-14.36c-0.36-0.46-0.83-0.93-0.63-1.63c0.31-0.34,0.48-0.01,0.66,0.16
		c2.06,1.94,4.13,3.85,6.15,5.83c6.43,6.29,12.73,12.7,19.28,18.85c3.68,3.46,7.09,7.2,10.86,10.55c4.11,3.66,7.78,7.75,11.8,11.49
		c5.46,5.1,10.97,10.15,16.5,15.16c1.24,1.12,2.01,2.31,1.78,4.01c0.08,1.17-0.3,2.21-1.01,3.1c-1.38,1.74-2.87,3.38-4.7,4.68
		c-1.26,0.89-2.66,1.39-4.18,1.45c-5.93,0.24-11.86,0.43-17.78,0.68c-1.77,0.07-3.54,0.27-5.3,0.43c-1.67,0.15-2.66,1.03-3.23,2.65
		c-3.48,9.93-8.59,18.97-15.14,27.2c-0.41,0.52-0.78,1.1-1.27,1.53c-1.97,1.77-1.78,3.82-0.73,5.89c1.25,2.47,2.7,4.84,3.98,7.3
		c2.01,3.83,3.97,7.69,5.91,11.55c2.55,5.06,0.4,12.15-4.5,14.95c-10.11,5.79-20.2,11.59-30.32,17.37
		c-4.63,2.64-11.7,1.16-14.7-3.29c-3.16-4.69-6.04-9.57-9.08-14.34c-1.13-1.78-2.36-3.49-3.57-5.22c-0.82-1.17-1.98-1.58-3.36-1.29
		c-8.55,1.76-17.17,1.93-25.83,1.25C412.47,393.48,411.36,393.39,410.33,392.98z"/>
	<path class="st1" d="M410.33,392.98c-1.33,0.02-2.65-0.01-3.96-0.37c-2.75-0.78-4.14-0.35-5.71,2.03
		c-2.74,4.17-5.34,8.44-8.02,12.65c-1.37,2.15-2.82,4.26-4.21,6.4c-0.88,1.36-2.14,2.15-3.62,2.77c-4.58,1.95-8.67,1.56-13.04-1.16
		c-9.32-5.81-18.96-11.1-28.42-16.7c-4.48-2.66-6.34-9.68-4.03-14.39c2.71-5.53,5.65-10.95,8.59-16.36c0.69-1.26,1.23-2.61,1.8-3.93
		c0.67-1.57,0.48-3.01-0.65-4.34c-7.2-8.46-12.63-17.95-16.41-28.38c-0.8-2.2-2.34-3.06-4.51-3.28c-5.53-0.54-11.09-0.27-16.62-0.66
		c-1.99-0.14-3.99-0.17-5.98-0.35c-4.62-0.42-9.8-5.87-9.82-10.49c-0.06-12.16-0.05-24.33-0.05-36.49c0-2.08,0.71-3.91,2.21-5.4
		c0.43-0.43,0.89-0.85,1.26-1.33c2.2-2.81,5.16-3.86,8.62-3.85c6.38,0.02,12.73-0.86,19.12-0.72c3.51,0.07,4.68-0.92,5.89-4.18
		c3.78-10.25,9.21-19.56,16.22-27.93c1.22-1.45,1.3-2.82,0.59-4.44c-2.68-6.05-5.99-11.78-9.2-17.53
		c-2.47-4.42-2.36-8.61-0.64-13.07c0.76-1.97,2.35-3.04,4.03-4.04c5.36-3.15,10.72-6.29,16.09-9.41c4.8-2.78,9.63-5.51,14.43-8.31
		c1.8-1.05,3.65-1.48,5.72-1.13c4.28,0.72,7.79,2.32,10.09,6.41c3.02,5.36,6.74,10.31,9.81,15.66c0.28,0.48,0.6,0.94,0.95,1.37
		c1.14,1.41,2.33,2.16,4.42,1.7c5.42-1.2,10.98-1.59,16.51-1.64c5.99-0.05,11.97,0.45,17.85,1.68c1.55,0.32,2.44-0.17,3.28-1.25
		c1.67-2.15,3.08-4.48,4.51-6.79c2.28-3.68,4.73-7.26,6.86-11.02c1.78-3.14,4.37-4.76,7.78-5.68c2.99-0.81,5.6-0.58,8.27,0.97
		c9.98,5.8,20.03,11.48,30.02,17.26c5.06,2.93,7.09,9.88,4.43,15.07c-3.05,5.98-5.89,12.07-9.35,17.84
		c-0.45,0.75-0.79,1.61-1.01,2.46c-0.29,1.14-0.3,2.19,0.61,3.25c7.5,8.71,13.16,18.51,17.05,29.33c0.91,2.53,1.92,3.41,4.65,3.43
		c3.83,0.03,7.65,0.15,11.47,0.37c3.6,0.21,7.2,0.36,10.79,0.64c1.81,0.14,3.45,0.85,4.75,2.17c1.09,1.11,2.18,2.21,3.22,3.37
		c1.12,1.25,1.67,2.75,1.67,4.42c-0.01,12.33-0.03,24.66-0.05,36.99c0,0.39,0.03,0.78-0.24,1.11c-0.88-4.08-4.62-5.73-7.2-8.34
		c-1.59-1.6-3.42-3.02-5.03-4.6c-3.4-3.35-7.01-6.49-10.34-9.91c-5.43-5.56-11.11-10.87-16.7-16.27
		c-4.27-4.13-8.37-8.43-12.73-12.47c-4.85-4.49-9.45-9.23-14.32-13.69c-0.29-0.27-0.6-0.5-0.96-0.65c-2.25-2.22-4.08-4.82-6.38-6.99
		c-4.89-4.62-10.04-8.9-16.07-12c-24.84-13.2-49.56-12.95-74.14,0.68c-3.66,2.07-7.06,4.53-10.31,7.21
		c-4.59,3.78-8.62,8.08-11.99,12.98c-6.34,8.28-10.39,17.6-12.73,27.71c-0.7,3.02-1.26,6.07-1.49,9.17
		c-0.24,0.59-0.11,1.2-0.08,1.81c-0.39,8.48,0.04,16.88,2.39,25.09c0.21,0.75,0.37,1.51,0.72,2.21c0.97,4.78,3.17,9.06,5.32,13.37
		c2.68,5.47,6.3,10.27,10.27,14.86c2.44,2.82,5.3,5.18,7.87,7.85c0.18,0.48,0.54,0.83,0.88,1.19c7.41,7.86,15.1,15.43,22.74,23.05
		c2.98,2.97,5.66,6.23,8.74,9.1c0.89,0.83,1.71,1.74,2.69,2.47C409.96,391.86,410.57,392.2,410.33,392.98z"/>
</g>
<g id="Layer_3">
	<g>
		<path class="st2" d="M347.61,290.59c1.17-13.3,5.78-25.33,13.43-36.22c0.28-0.4,0.64-0.75,0.96-1.12c5.68-4.81,12.34-7,19.69-7.42
			c10.38-0.59,19.97,2.29,29.29,6.45c14.4,6.42,27.22,15.36,39.66,24.89c4.76,3.64,9.37,7.47,13.94,11.34
			c0.72,0.61,1.44,1.22,1.95,2.04c0.26,0.59,0.2,1.2,0.04,1.79c-2.23,8.35-5.71,16.1-11.05,22.94c-0.24,0.31-0.47,0.62-0.82,0.82
			c-0.76,0.32-1.4-0.08-2.06-0.36c-7.91-3.4-15.45-7.55-22.96-11.74c-9.79-5.46-19.5-11.07-29.64-15.88
			c-8.89-4.22-17.97-7.92-27.69-9.86c-4.24-0.84-8.39-0.74-12.49,0.58c-5.27,1.7-8.59,5.49-10.84,10.38
			c-0.28,0.6-0.4,1.28-0.95,1.73C347.76,291.04,347.56,290.96,347.61,290.59z"/>
		<path class="st3" d="M347.92,290.88c3.88-11.17,13.26-15.07,24.14-13.07c10.18,1.87,19.62,5.86,28.89,10.3
			c13.42,6.43,26.11,14.2,39.26,21.14c4.17,2.2,8.4,4.28,12.73,6.15c0.55,0.24,1.07,0.61,1.72,0.53c0.09,0.14,0.12,0.29,0.08,0.46
			c-5.54,6.88-12.03,12.65-19.86,16.83c-0.25,0.07-0.51,0.09-0.77,0.08c-11.44-1.79-22.51-5.01-33.51-8.51
			c-9.93-3.16-19.66-6.98-29.84-9.34c-3.84-0.89-7.7-1.52-11.68-1.1c-3.06,0.32-5.3,1.78-6.98,4.27c-0.34,0.5-0.56,1.1-1.16,1.37
			c-0.73-0.14-0.72-0.82-0.84-1.31c-1.13-4.45-2.09-8.91-2.51-13.51c-0.36-3.89-0.16-7.76-0.24-11.63
			c-0.01-0.54,0.16-1.09,0.25-1.63C347.4,291.47,347.63,291.17,347.92,290.88z"/>
		<path class="st3" d="M466.32,290.64c-15.03-12.97-30.65-25.13-48.27-34.45c-8.11-4.29-16.54-7.8-25.68-9.34
			c-10.73-1.81-20.77-0.36-29.76,6.2c-0.17,0.12-0.41,0.14-0.61,0.21c2.44-3.72,5.39-7.02,8.63-10.03c3.24-3,6.67-5.8,10.41-8.18
			c0.97-0.62,1.98-1.18,2.97-1.77c4.31-1.86,8.8-2.97,13.47-3.49c5.64-0.63,11.19-0.22,16.7,1.01c8.79,1.96,16.73,5.88,24.25,10.71
			c7.92,5.08,15.15,11.03,22.06,17.41c2.7,2.49,5,5.35,7.72,7.8c0.38,0.44,0.7,0.9,0.64,1.53c-0.08,6.51,0.34,13.05-1.08,19.48
			c-0.21,0.96-0.21,1.99-0.89,2.81C466.72,290.69,466.53,290.72,466.32,290.64z"/>
		<path class="st4" d="M434.3,332.98c0.21,0.01,0.42,0.02,0.63,0.03c0.66-0.1,1.31-0.2,1.98-0.09c7.88,1.32,15.79,2.3,23.8,2.63
			c5.86,0.24,11.63-0.13,17.37-1.19c3.64-0.67,6.99-2.16,10.01-4.34c0.57-0.41,1.11-0.96,1.93-0.79c-0.35,2.28-1.71,4.13-2.77,6.07
			c-2.24,4.08-5.03,7.81-7.92,11.46c-0.62,0.78-1.46,1.12-2.31,1.48c-0.28,0.8-1.05,0.94-1.69,1.21c-6.14,2.6-12.59,3.97-19.2,4.61
			c-4.53,0.44-9.07,0.83-13.62,0.68c-12.88-0.45-25.7-1.51-38.35-4.08c-2.86-0.58-5.72-0.85-8.59-0.28
			c-2.83,0.57-4.28,2.37-4.42,5.24c-0.16,3.45,1.05,6.54,2.37,9.61c0.32,0.75,0.83,1.48,0.47,2.37c-6.34-2.39-12.07-5.85-17.44-9.94
			c-0.74-0.57-1.48-1.15-2.21-1.72c-7.52-6.42-13.86-13.8-18.32-22.68c0.72-0.44,1.27,0.06,1.84,0.37c9.14,5,18.89,8,29.28,8.9
			c15.65,1.35,30.54-1.29,44.57-8.45C432.54,333.64,433.41,333.29,434.3,332.98z"/>
		<path class="st2" d="M434.3,332.98c-2.42,1.91-5.29,2.95-8.07,4.15c-7.11,3.06-14.56,4.94-22.22,5.74
			c-15.95,1.66-31.21-0.74-45.49-8.33c-0.83-0.44-1.54-1.11-2.5-1.28c-1.98-3.52-3.53-7.23-4.83-11.05
			c-0.24-0.71-0.61-1.43-0.25-2.22c2.1-5.19,6.21-6.51,11.65-6.18c10.26,0.63,19.7,4.49,29.31,7.64
			c11.47,3.76,22.93,7.52,34.76,10.01C429.2,332,431.75,332.48,434.3,332.98z"/>
		<path class="st2" d="M467.99,266.99c-1.29-0.81-2.15-2.06-3.19-3.13c-11.45-11.67-23.99-21.88-39-28.71
			c-8.23-3.75-16.87-5.7-25.95-5.18c-4.66,0.27-9.2,1.24-13.6,2.83c-0.72,0.26-1.44,0.6-2.25,0.48c4.56-3,9.54-5.08,14.69-6.8
			c8.48-2.83,17.21-4.12,26.13-3.78c11.5,0.45,22.37,3.37,32.54,8.8c0.58,0.31,1.1,0.73,1.66,1.09c0.42,0.45,0.78,0.93,1.01,1.51
			c4.11,10.08,7.08,20.46,8.23,31.32C468.32,265.97,468.47,266.53,467.99,266.99z"/>
		<path class="st4" d="M467.99,266.99c-1.07-10.99-3.9-21.53-8.01-31.75c-0.35-0.87-0.65-1.76-0.97-2.64
			c3.21,1.32,5.89,3.49,8.64,5.53c5.19,3.84,9.63,8.47,13.67,13.49c5.61,7.32,9.81,15.38,12.54,24.19c0.47,1.52,1.36,3.04,0.81,4.76
			c-0.44,1.67-2.71,2.92-4.88,2.65c-1.84-0.23-3.58-0.83-5.17-1.73c-5.91-3.32-10.82-7.87-15.5-12.69
			c-0.23-0.24-0.42-0.52-0.44-0.87C468.46,267.61,468.22,267.3,467.99,266.99z"/>
		<path class="st5" d="M347.92,290.88c-0.11,0.34-0.22,0.68-0.32,1.02c-0.4-0.44-0.37-0.88,0.01-1.31
			C347.71,290.69,347.81,290.79,347.92,290.88z"/>
		<path class="st6" d="M393.99,367.6c-1.18-2.98-2.7-5.83-3.2-9.05c-0.22-1.44-0.32-2.89-0.03-4.3c0.56-2.81,2.9-4.36,6.48-4.66
			c4.01-0.33,7.79,0.9,11.66,1.5c7.28,1.13,14.58,2,21.93,2.54c5.03,0.37,10.06,0.69,15.1,0.56c10.68-0.29,21.22-1.41,31.1-5.95
			c0.29,0.59,0.27,0.83-0.35,1.43c-1.55,1.5-3.08,3.02-4.7,4.44c-10.58,9.33-22.83,15.26-36.7,17.84
			c-4.25,0.79-8.56,1.25-12.84,1.21c-7.24-0.08-14.42-0.95-21.4-3.13C398.66,369.29,396.33,368.43,393.99,367.6z"/>
		<path class="st4" d="M466.32,290.64c0.11-0.01,0.22-0.01,0.32,0.01c0.93,0.17,1.52,0.87,2.23,1.39c4.56,3.38,9.17,6.69,14.6,8.55
			c5.14,1.76,8.68,0.66,12.04-3.59c0.34-0.42,0.59-0.97,1.21-1.08c1.24,0.8,0.61,2.05,0.53,3c-0.34,4.05-0.38,8.14-1.26,12.14
			c-0.31,1.39-0.4,2.83-1,4.16c-1.46,2.2-3.73,3.3-6.07,4.13c-5.57,1.98-11.34,2.3-17.2,1.86c-5.03-0.38-9.77-1.87-14.47-3.57
			c-0.91-0.33-1.97-0.46-2.53-1.44c-0.03-0.09-0.05-0.19-0.07-0.28c2.55-3.67,5.09-7.34,7.03-11.39c1.91-4,3.34-8.17,4.51-12.43
			C466.33,291.65,466.29,291.13,466.32,290.64z"/>
		<path class="st6" d="M454.73,316.21c4.66,1.78,9.34,3.53,14.31,4.22c6.1,0.85,12.15,0.63,18.13-0.94
			c2.96-0.77,5.43-2.45,7.82-4.26c-1.07,4.88-2.5,9.62-4.97,14c-5.69,4.74-12.49,6.22-19.63,6.71c-11.25,0.77-22.33-0.68-33.38-2.5
			c-0.69-0.11-1.46,0.05-2.08-0.43c3.51-2.45,7.25-4.6,10.46-7.45c2.68-2.38,5.23-4.91,7.58-7.62
			C453.52,317.31,454.02,316.66,454.73,316.21z"/>
		<path class="st6" d="M496.73,295.93c-1.88,3.14-4.4,5.37-8.19,5.88c-1.41,0.19-2.78-0.04-4.09-0.46
			c-6.77-2.17-12.48-6.13-17.81-10.7c1.67-6.52,1.83-13.17,1.71-19.85c-0.02-0.95-0.38-1.99,0.33-2.87c3.59,3.36,7,6.93,10.99,9.83
			c2.86,2.08,5.72,4.17,9.31,4.88c2.35,0.47,4.24-0.16,5.7-2.07c1.13,1.67,1.06,3.66,1.42,5.53c0.51,2.66,0.72,5.35,0.89,8.05
			C497.04,294.76,497.01,295.36,496.73,295.93z"/>
	</g>
</g>
<g id="Layer_2">
	<g>
		<g>
			<path class="st7" d="M399.1,313.55c-25.6-33.87-51.88-8.13-45.02,15.54c17.26,37.74,61.84,54.35,99.58,37.09
				c13.01-5.95,24.05-15.49,31.83-27.49C465.69,357.23,429.76,354.13,399.1,313.55z"/>
			<path class="st8" d="M421.98,290.23c-35.21-53.4-74.67-24.94-74.67,7.68c-0.01,10.8,2.31,21.48,6.83,31.3
				c-4.68-22.11,20.72-39.16,44.37-7.42c34.34,46.08,68.05,37.97,86.91,17.01c6.06-9.3,9.97-19.82,11.45-30.82v0.15
				C488.77,333.24,453.03,337.33,421.98,290.23z"/>
			<path class="st9" d="M446.11,266.34c-26.14-43.13-59.3-39.25-81.74-16.14c-11.06,13.43-17.1,30.3-17.07,47.71
				c2.35-31.57,40.53-53.54,75.09,0c30.72,47.66,68.99,35.24,74.43,10.34v-0.24c0.48-3.39,0.68-6.82,0.61-10.24v-3.41
				C484.13,303.89,466.64,300.21,446.11,266.34z"/>
			<path class="st10" d="M446.29,274.02c23.94,38.49,44.58,28.64,51.2,20.41c-0.27-5.75-1.2-11.46-2.77-17
				c-11.16,0.23-13.76-1.63-24.75-18.35c-16.78-25.72-37.93-43.08-74.88-31.14c-11.97,4.7-22.54,12.37-30.72,22.3
				C389.76,226.88,420.91,233.22,446.29,274.02z"/>
			<path class="st11" d="M468.33,262.39c10.95,16.75,17.61,17.6,26.38,15.04c-11.37-39.95-52.98-63.11-92.93-51.74
				c-2.27,0.64-4.5,1.4-6.69,2.25C428.1,217.53,451.5,236.67,468.33,262.39z"/>
		</g>
		<g>
			<path class="st12" d="M422.4,223.68c41.3,0,74.85,33.36,75.09,74.66v-0.43c0-41.47-33.62-75.09-75.09-75.09
				s-75.09,33.62-75.09,75.09v0.43C347.54,257.04,381.09,223.68,422.4,223.68z"/>
			<path class="st13" d="M422.4,372.15c-41.3,0-74.85-33.36-75.09-74.66v0.43c0,41.47,33.62,75.09,75.09,75.09
				s75.09-33.62,75.09-75.09v-0.43C497.25,338.79,463.7,372.15,422.4,372.15z"/>
		</g>
		
			<radialGradient id="SVGID_1_" cx="1033.0811" cy="-3490.0259" r="0.8477" gradientTransform="matrix(176 0 0 176 -181452.2813 614490.0625)" gradientUnits="userSpaceOnUse">
			<stop  offset="0" style="stop-color:#FFFFFF"/>
			<stop  offset="1" style="stop-color:#FFFFFF;stop-opacity:0"/>
		</radialGradient>
		<circle class="st14" cx="422.4" cy="297.91" r="75.09"/>
	</g>
</g>
</svg>
