<svg xmlns="http://www.w3.org/2000/svg" viewBox="0 0 642.12 543.33"><defs><style>.cls-1{fill:#a5a5a5;}.cls-2{fill:#dfdfde;}.cls-3{fill:#fff;}.cls-4{fill:#010101;fill-opacity:0.99;opacity:0.3;isolation:isolate;}.cls-5{fill:#4a69b1;}</style></defs><title>logo_black</title><g id="Layer_1" data-name="Layer 1"><path d="M742.06,199.21V298a25,25,0,0,1-24.7,24.7H692.67A25,25,0,0,1,668,298V199.21q0-40.9-28.94-69.84t-69.85-28.95q-40.9,0-69.84,29t-28.95,69.84V273.3h37.05a36.89,36.89,0,0,1,37,37.05V532.62a36.89,36.89,0,0,1-37,37H137a36.89,36.89,0,0,1-37-37V310.35a36.89,36.89,0,0,1,37-37.05H396.3V199.21q0-71.39,50.75-122.13T569.18,26.33q71.39,0,122.14,50.75T742.06,199.21Z" transform="translate(-99.94 -26.33)"/></g><g id="Layer_2" data-name="Layer 2"><g id="g4148"><path id="path2986-2" class="cls-1" d="M256.13,528.18a11.71,11.71,0,0,1-2.68-7.37c0-1.34,1.38-5.9,3.93-13,2.16-6,4-11.53,4-12.19.05-.88-1-2.18-3.87-4.79a90.17,90.17,0,0,1-7-7.18,22.77,22.77,0,0,0-4.1-4c-.64-.27-5.33,1.09-12.26,3.55C228,485.3,222,487.16,221,487.24c-2.2.16-6.33-1.41-8.1-3.08-1.4-1.33-11.69-26.23-11.92-28.86s1.58-6.51,3.86-8.39c1-.85,6.66-3.7,12.49-6.34,6.27-2.83,10.77-5.2,11-5.79a23.4,23.4,0,0,0,.12-5.71,92.85,92.85,0,0,1,0-10c.19-2.91.06-5.63-.28-6s-5.34-3.07-11.1-5.9c-6.71-3.29-11.12-5.73-12.25-6.77-2.16-2-3.77-6.36-3.24-8.77.22-1,3-7.74,6.19-15l5.79-13.24,2.34-1.27c4.14-2.24,5.55-2,18.8,2.64,7.49,2.64,12.13,4.05,12.66,3.83a36.11,36.11,0,0,0,4.8-4.54c2.18-2.32,5.36-5.4,7.07-6.85a19.55,19.55,0,0,0,3.49-3.54c.21-.5-1.25-5.55-3.25-11.23s-3.86-11.23-4.14-12.33a10.34,10.34,0,0,1,1.76-8.82c1.45-1.92,2.91-2.68,14.52-7.46,7.09-2.93,13.92-5.4,15.16-5.5a11.27,11.27,0,0,1,8.48,3.56c.77.92,3.56,6.4,6.19,12.19s5,10.8,5.28,11.15,2.95.55,6.35.41c3.21-.14,7.92-.09,10.46.1,3.44.27,4.89.11,5.68-.6.58-.52,3.38-5.66,6.22-11.42,5.46-11.07,6.61-12.7,10-14.15,3.76-1.62,5.35-1.21,19.83,5.12l13.19,5.77,1.49,2.25c2.56,3.88,2.37,5.53-2.14,18.51-2.19,6.28-4.06,12-4.17,12.59-.16.9.68,2,3.7,4.7a102.09,102.09,0,0,1,7.37,7.62,46.18,46.18,0,0,0,3.88,4.25c.24.1,5.55-1.64,11.8-3.86s12.4-4.13,13.64-4.23a11.13,11.13,0,0,1,8.61,3.68c1,1.14,3.6,6.8,6.65,14.45,5.23,13.12,5.51,14.49,3.74,18.67-1.25,3-3.39,4.35-14.92,9.64-6.27,2.88-11.48,5.43-11.58,5.68a58,58,0,0,0,.1,6.66,86.15,86.15,0,0,1-.14,10.39c-.29,2.85-.16,4.43.4,5s5.75,3.31,11.78,6.33c12,6,13.73,7.32,14.56,11.09.79,3.57.14,5.72-5.7,19l-5.59,12.74-2.41,1.5c-4.31,2.68-5.07,2.59-19.08-2.3-6.85-2.39-12.62-4.28-12.82-4.2a53.78,53.78,0,0,0-3.84,4,104.37,104.37,0,0,1-7.56,7.27c-2.25,1.91-4.15,3.8-4.22,4.21s1.62,5.66,3.76,11.68,4,12.17,4.08,13.65a10,10,0,0,1-3,8.06c-1.92,1.88-25.1,11.48-28.32,11.73a12.72,12.72,0,0,1-8.62-3.36c-.73-.75-3.58-6.33-6.35-12.4s-5.4-11.17-5.84-11.36a36.44,36.44,0,0,0-6.63-.13c-3.21.11-7.86,0-10.34-.16-3.42-.29-4.66-.15-5.18.56-.37.52-3.13,5.8-6.13,11.74-6.59,13.06-7.73,14.3-13.41,14.68-1.65.12-3.95-.72-15.31-5.55-10.05-4.28-13.66-6-14.57-7Zm45-51.33a53.4,53.4,0,0,0,36.94-1.64,54.52,54.52,0,0,0,23.11-17.52c4.06-5.13,9.48-17.95,10.37-24.51A55.45,55.45,0,0,0,351.67,382c-3.59-3-4.65-3.57-12.63-7-7.65-3.28-9.3-3.81-13.45-4.38a55.44,55.44,0,0,0-53,23,54.31,54.31,0,0,0-5.67,51.65,55.92,55.92,0,0,0,17.88,23.37A77.61,77.61,0,0,0,295.46,475C295.86,475.17,298.41,476,301.14,476.85Zm-3.51-26.17a32.64,32.64,0,0,1-10.86-36.76,31.24,31.24,0,0,1,18.64-19.43,32.3,32.3,0,0,1,42.17,17.58c5.51,13.57,2.06,28.07-8.9,37.44a31.65,31.65,0,0,1-32.75,5.63,27,27,0,0,1-8.3-4.46Zm19.57-6.54c4.07.17,11.23-1.95,14.51-4.79,2.32-2,2.83-2.79,4.72-7.24,2-4.74.78-5.19.43-8.87-.72-7.43-4.28-12.55-11-15.81-5.4-2.62-9.2-2.85-14.72-.9a18.82,18.82,0,0,0-12.8,15.06,18.55,18.55,0,0,0,4.4,15.71,19,19,0,0,0,14.46,6.84Z" transform="translate(-99.94 -26.33)"/><path id="path2986-1" class="cls-2" d="M256.13,523a11.68,11.68,0,0,1-2.68-7.37c0-1.33,1.38-5.9,3.93-13,2.16-6,4-11.54,4-12.2.05-.88-1-2.17-3.87-4.78a93.68,93.68,0,0,1-7-7.18,22.77,22.77,0,0,0-4.1-4c-.64-.27-5.33,1.09-12.26,3.55C228,480.13,222,482,221,482.06c-2.2.17-6.33-1.41-8.1-3.08-1.4-1.33-11.69-26.23-11.92-28.85s1.58-6.52,3.86-8.39c1-.85,6.66-3.71,12.49-6.34,6.27-2.84,10.77-5.2,11-5.79a23.49,23.49,0,0,0,.12-5.72,92.85,92.85,0,0,1,0-10c.19-2.9.06-5.62-.28-6s-5.34-3.07-11.1-5.9c-6.71-3.28-11.12-5.72-12.25-6.77-2.16-2-3.77-6.36-3.24-8.77.22-1,3-7.74,6.19-15l5.79-13.24,2.34-1.26c4.14-2.25,5.55-2.05,18.8,2.63,7.49,2.65,12.13,4.05,12.66,3.84a37.25,37.25,0,0,0,4.8-4.55c2.18-2.31,5.36-5.39,7.07-6.85a19.22,19.22,0,0,0,3.49-3.54c.21-.5-1.25-5.55-3.25-11.23s-3.86-11.22-4.14-12.33a10.31,10.31,0,0,1,1.76-8.81c1.45-1.93,2.91-2.68,14.52-7.47,7.09-2.93,13.92-5.4,15.16-5.49a11.23,11.23,0,0,1,8.48,3.55c.77.92,3.56,6.41,6.19,12.19s5,10.8,5.28,11.16,2.95.54,6.35.4c3.21-.13,7.92-.09,10.46.11,3.44.26,4.89.11,5.68-.6.58-.53,3.38-5.67,6.22-11.43,5.46-11.07,6.61-12.7,10-14.15,3.76-1.61,5.35-1.2,19.83,5.13l13.19,5.76,1.49,2.26c2.56,3.87,2.37,5.52-2.14,18.5-2.19,6.29-4.06,11.95-4.17,12.59-.16.9.68,2,3.7,4.71a102,102,0,0,1,7.37,7.61,46.18,46.18,0,0,0,3.88,4.25c.24.1,5.55-1.64,11.8-3.86s12.4-4.13,13.64-4.23a11.17,11.17,0,0,1,8.61,3.69c1,1.13,3.6,6.79,6.65,14.44,5.23,13.13,5.51,14.49,3.74,18.68-1.25,3-3.39,4.35-14.92,9.64-6.27,2.87-11.48,5.43-11.58,5.67a58.22,58.22,0,0,0,.1,6.67,86.19,86.19,0,0,1-.14,10.39c-.29,2.84-.16,4.43.4,5s5.75,3.31,11.78,6.32c12,6,13.73,7.32,14.56,11.1.79,3.56.14,5.71-5.7,19l-5.59,12.74-2.41,1.5c-4.31,2.68-5.07,2.59-19.08-2.31-6.85-2.39-12.62-4.27-12.82-4.19a50.43,50.43,0,0,0-3.84,3.95,104.48,104.48,0,0,1-7.56,7.28c-2.25,1.91-4.15,3.8-4.22,4.2s1.62,5.66,3.76,11.68,4,12.17,4.08,13.65a10,10,0,0,1-3,8.06c-1.92,1.88-25.1,11.48-28.32,11.73a12.67,12.67,0,0,1-8.62-3.35c-.73-.76-3.58-6.34-6.35-12.4s-5.4-11.18-5.84-11.37a37.47,37.47,0,0,0-6.63-.13c-3.21.12-7.86,0-10.34-.16-3.42-.28-4.66-.15-5.18.56-.37.52-3.13,5.8-6.13,11.74-6.59,13.06-7.73,14.3-13.41,14.69-1.65.11-3.95-.72-15.31-5.56-10.05-4.28-13.66-6-14.57-7Zm45-51.33A53.4,53.4,0,0,0,338.08,470a54.49,54.49,0,0,0,23.11-17.51c4.06-5.13,9.48-18,10.37-24.51a55.46,55.46,0,0,0-19.89-51.24c-3.59-3-4.65-3.57-12.63-7-7.65-3.28-9.3-3.82-13.45-4.38a55.46,55.46,0,0,0-53,23A54.33,54.33,0,0,0,266.94,440a56,56,0,0,0,17.88,23.37,76.76,76.76,0,0,0,10.64,6.38c.4.21,3,1.06,5.68,1.89Zm-3.51-26.16a32.65,32.65,0,0,1-10.86-36.76,31.28,31.28,0,0,1,18.64-19.44,32.29,32.29,0,0,1,42.17,17.59c5.51,13.56,2.06,28.07-8.9,37.44A31.63,31.63,0,0,1,305.93,450a26.82,26.82,0,0,1-8.3-4.45ZM317.2,439c4.07.17,11.23-1.94,14.51-4.79,2.32-2,2.83-2.78,4.72-7.23,2-4.74.78-5.19.43-8.87-.72-7.44-4.28-12.56-11-15.82-5.4-2.61-9.2-2.84-14.72-.89a18.79,18.79,0,0,0-12.8,15.05,18.53,18.53,0,0,0,4.4,15.71A18.94,18.94,0,0,0,317.2,439Z" transform="translate(-99.94 -26.33)"/></g><ellipse id="path3012" class="cls-3" cx="217.82" cy="397.02" rx="84.65" ry="82.65"/><path id="path3010-9" class="cls-4" d="M317.81,340.06a89.53,89.53,0,0,0-40.5,9.52c-23.28,11.88-38.29,30-46.45,56-1.84,5.83-3.16,8.81-3.19,21a80.69,80.69,0,0,0,2.52,20.65c4.14,17.85,12.15,32.48,24.6,44.9,14.19,14.17,31.82,23,50.83,25.51a89.13,89.13,0,0,0,74.75-25.48c27.27-27.36,34.12-68.57,17.08-102.71-10.22-20.47-29.76-37.53-51.26-44.75A89.62,89.62,0,0,0,317.81,340.06Z" transform="translate(-99.94 -26.33)"/><g id="g2989"><circle id="path3010" class="cls-3" cx="217.81" cy="397.43" r="87.3"/><path id="path2997" class="cls-5" d="M305.62,512.29c-19-2.49-36.64-11.34-50.83-25.51-12.45-12.43-20.46-27-24.6-44.9a80.69,80.69,0,0,1-2.52-20.65c0-12.16,1.35-15.14,3.19-21,8.16-26,23.17-44.1,46.45-56a90.67,90.67,0,0,1,68.88-4.93c21.5,7.22,41,24.28,51.26,44.75,17.05,34.14,10.19,75.34-17.09,102.71a89.1,89.1,0,0,1-74.74,25.48Zm-25.09-12.78c-.13-.55-.41-2.51-.63-4.36-.36-3-.2-3.55,1.78-5.53,2.82-2.82,5.33-2.82,17.26,0,5,1.18,12.42,2.67,16.43,3.3,9.08,1.43,31.22,1.61,39.26.32,6.54-1.05,17.47-4,20.29-5.43,3.08-1.59,13.48-14.05,12.53-15-.23-.23-3.71.41-7.74,1.42-13.86,3.46-20.39.18-33.95-.23-23.48-.71-42.77-5.64-74.37-19-18.92-8-23.6-4.64-28.36.13-3.59,3.59-3.69,5.28-.63,10.87a88.2,88.2,0,0,0,31.46,32.23c4.73,2.78,7.11,3.25,6.67,1.33Zm119.23-50.59a51.4,51.4,0,0,0,1.73-6.57c.94-4.53.92-5.05-.14-5.86a4.41,4.41,0,0,0-2.14-.89c-2,0-13.25-5.12-19.3-8.77-11.63-7-26.28-18.9-46.94-38.08-20.32-18.87-26.41-23.73-34.23-27.35-9.26-4.28-21.62-5-34-2-4.57,1.1-5.8,1.75-8.56,4.49a85.75,85.75,0,0,0-16,22.39c-6.1,12.64-5.84,21.67,1.86,15.14,5.85-5,11.67-5.55,17.55-6.55,3.83-.66,9.54.22,14.09,1.23,9.39,2.1,16.09,8.93,40.43,26.2,27.54,19.55,32.43,19.53,51.2,27,8.11,3.23,29,1.17,32.1,1.23a2.44,2.44,0,0,0,2.31-1.56Zm-2.45-44.72c2.28-2,2.54-2.57,2.23-4.86-.54-4.09-5.09-14.52-9.19-21.11-4.84-7.78-16.74-20-24.35-25a89.53,89.53,0,0,0-34.69-13.93c-11.37-2-34.88-.49-35.83,2.36-.19.59,1,.84,4.07.84,19,0,35.21,5.29,47.5,15.49,7.3,6.05,12.41,11.8,20.77,23.35,14.06,19.43,19.57,24.88,25.33,25.05.86,0,2.73-1,4.16-2.23Z" transform="translate(-99.94 -26.33)"/></g></g></svg>