<?xml version="1.0" encoding="utf-8"?>
<!-- Generator: Adobe Illustrator 25.2.0, SVG Export Plug-In . SVG Version: 6.00 Build 0)  -->
<svg version="1.1" id="Calque_1" xmlns="http://www.w3.org/2000/svg" xmlns:xlink="http://www.w3.org/1999/xlink" x="0px" y="0px"
	 viewBox="0 0 642.1 543.3" style="enable-background:new 0 0 642.1 543.3;" xml:space="preserve">
<style type="text/css">
	.st0{fill:#FFFFFF;stroke:#000000;stroke-width:2;stroke-miterlimit:10;}
	.st1{fill:#0070C0;stroke:#FFFFFF;stroke-width:0.688;stroke-linecap:round;stroke-linejoin:round;}
	
		.st2{fill-rule:evenodd;clip-rule:evenodd;fill:#FFFFFF;stroke:#E5E5E5;stroke-width:0.445;stroke-linecap:round;stroke-linejoin:round;}
	.st3{fill:#8B8B8B;}
	.st4{fill:#9C9C9C;}
	.st5{fill:#C2C6D1;}
	.st6{fill:#FFFFFF;fill-opacity:0.2;}
	.st7{fill:#1A237E;fill-opacity:0.2;}
</style>
<g id="Layer_1">
	<g>
		<path class="st0" d="M642.1,172.9v98.8c-0.2,13.6-11.1,24.5-24.7,24.7h-24.7c-13.6-0.2-24.5-11.1-24.7-24.7v-98.8
			c0-27.3-9.6-50.5-28.9-69.8s-42.6-28.9-69.8-28.9c-27.3,0-50.5,9.7-69.8,29s-28.9,42.6-29,69.8v74h37c20.4-0.1,36.9,16.4,37,36.8
			c0,0.1,0,0.2,0,0.3v222.3c0.1,20.4-16.4,36.9-36.8,37c-0.1,0-0.1,0-0.2,0H37.1c-20.4,0.1-36.9-16.4-37-36.8c0-0.1,0-0.1,0-0.2V284
			c-0.1-20.4,16.4-37,36.7-37c0.1,0,0.2,0,0.3,0h259.3v-74.1c0-47.6,16.9-88.3,50.8-122.1S421.7,0,469.2,0
			c47.6,0,88.3,16.9,122.1,50.8C625.2,84.6,642.1,125.3,642.1,172.9z"/>
	</g>
</g>
<g>
	<circle class="st1" cx="209.4" cy="397.4" r="86.8"/>
	<g transform="matrix(1.4404 0 0 1.4747 12.538 -194.14)">
		<polyline class="st2" points="138.7,438.1 138.5,438.8 138.4,441.6 137.9,442.8 135.8,443.6 134.9,445.4 134.9,447.9 136.5,449.2 
			139,450.7 141.7,453.3 143.5,455.4 144.9,455.5 145,457 144.3,458.5 144.6,459.6 144.7,459.7 150.8,458.5 156.7,456.7 
			162.3,454.4 169,450.7 174.9,446.4 175,444.7 176,442.1 177.8,439.5 178.8,437.9 177.3,436.8 176.5,436.7 174.5,437.5 
			170.7,438.4 167.5,438.8 164.9,435.8 160.9,435.9 157.8,435.4 154.3,433.9 151.5,434.5 147.7,434.6 146.2,435.3 143.4,434.3 
			141.5,435.2 139.9,436.5 139,437.4 137.6,437.1 135.3,436.9 133.5,435.5 133.1,434.6 133.7,433 133.8,431.6 132.5,430.6 
			130.5,430.1 128.3,430.1 128,429.1 128.7,427.8 129,425.5 127.7,424.8 126,425.4 125.3,426.5 124,426.9 122.4,426.4 120.1,424.5 
			119.9,422.2 120.2,420.1 122.1,417.6 124.5,417.1 126,417.3 127.1,417.9 128.1,417.7 129.3,417.1 131.3,417.3 133.1,418.1 
			134.4,420.1 135.5,421.6 136.7,421.2 136.3,419.3 135.6,417.8 135.9,415.9 136.8,414.4 139.1,412.7 140.5,411.5 140.6,409.3 
			141.5,406.8 142.7,405.2 143.5,404.9 143.9,403.7 145.1,402 146.1,401.5 147.2,402 148,401.1 149.7,400.1 151,399.4 150.5,398.2 
			148.7,398.5 147.9,398.3 147.8,397 146.6,396.7 145.5,397.6 144.2,398.2 144.1,397.7 145.3,396.3 147.4,395.3 148.7,395.1 
			150.5,394.4 151,393.1 150.4,391.4 148.7,389.4 145.5,387 143.6,386.8 142.5,386.6 141.5,385.2 138.3,383.8 137.2,384.2 
			137.2,386.2 137.3,388.8 138.2,389.7 137.5,390.7 137.2,393 136.8,395 135.5,393.8 134.6,392.3 134.4,390.6 132.9,389.9 
			130.6,389.3 129.7,388.1 129.9,385.4 131.3,383.2 133.5,381.1 135.5,379.6 136.4,378.5 135.3,377.3 133.9,377.8 132.4,377.4 
			132.2,375.8 132,374.4 131,374.5 130.7,376.5 129.7,377.3 128.9,376.7 128.9,374.3 128.3,372.7 127,372 125.9,370.3 124.2,370.5 
			123.1,371.5 124.4,372.6 124.7,374 126.2,375.1 126,376.7 121.3,373 118.8,370.8 117.5,369 117.5,367.3 117,365.1 115.9,364.7 
			114,364.7 113.1,365.2 112.1,365 110.9,365.1 110.5,366.3 110,367.1 107.8,366.7 106.4,367.6 105.6,369.3 105.2,370.7 
			103.9,370.5 102.6,369.5 103.1,371 105.1,371.9 107.3,372.7 109.2,373.7 109.9,375.6 110,377.9 109.3,381.2 108.2,384.6 
			108,387.3 108.1,388.8 108.4,390.4 107.1,392.1 105.8,394.2 104.6,397.1 104,400.5 103.6,405.3 104.1,407 105.1,410.3 
			105.8,412.8 106.9,415.9 108.3,417.4 109.5,417.8 108.3,416.4 107.7,414.7 107.3,412.7 106.9,410.9 107.9,410.7 108.3,412.1 
			109.2,415.5 111,419.1 111.5,421.1 111,422.4 112.1,424 114.2,425 117.4,427.9 119.4,428.7 122.4,429.6 125.9,431.1 127.7,432.3 
			129.4,433.7 130.7,436.6 133.2,437.6 134.9,438.2 136.8,438 138.7,438.1 		"/>
		<polyline class="st2" points="132.2,424.9 133.6,424.3 135.8,424.8 138.4,425.6 140.3,425.8 142.1,426.6 141.6,427.5 139.5,427.8 
			137.8,426.6 135.7,425.5 132.2,424.9 		"/>
		<polyline class="st2" points="142.7,427.2 142.6,428.1 144.1,428.7 145.5,428.9 148,428.5 146.3,427.6 146.4,427 145.5,426.7 
			142.7,427.2 		"/>
		<polyline class="st2" points="151.4,393 152.2,393.8 153.7,395 155.4,396.4 155.9,397.4 153.3,397.5 151.6,395.7 151,394.4 
			151.4,393 		"/>
		<polyline class="st2" points="140.4,383.4 138.9,383 137,382.7 138.9,381.2 139,379.2 138.1,378 135.9,377.3 134.4,376.6 
			132.8,374.7 134.1,373.5 135.9,373.9 138.1,375.1 140.2,376.2 141,378 141.8,378.6 143.5,379.4 144.6,381.3 143.7,382.3 
			143.3,383.9 142,384.1 140.4,383.4 		"/>
		<polyline class="st2" points="148.9,381.6 151,383 152,383.5 154.1,382.8 156.6,382 154.1,381.1 153.3,379.8 153.5,377.6 
			153.7,373.7 155.1,372.4 155.1,370.3 152.8,368.1 150.5,366.4 147.7,365.5 145.3,364 142.6,364 140.5,364.7 139.5,366 
			138.3,366.1 138.2,365.2 136.6,365.2 134.6,366.1 135,367.4 134.1,369.6 135,371 136.9,372.1 137.7,369.3 138.6,368.2 
			139.2,370.2 140.8,371.8 142.4,372.5 144.7,374.3 146.7,376.2 147.2,379.7 148.7,380.5 148.9,381.6 		"/>
		<polyline class="st2" points="156.8,372 157.1,374 157.8,375.1 159.1,375.6 160.7,373.7 161.4,371.3 160,370.3 158.4,370.8 
			157.8,371.8 156.8,372 		"/>
		<polyline class="st2" points="181.6,362.3 182.4,364.3 182.3,366.3 182.8,367.9 184.4,369 184.3,370.3 182.9,370.7 182,370.6 
			180.7,371.2 183.3,372.4 183,373.4 180.6,373.5 180.9,374.8 181.5,376.4 181.5,378.3 182.6,380 183.4,381.6 184.7,382.8 
			184.1,383.6 183.9,384.4 183.5,386.2 182.1,387.3 179.9,385.9 179.7,384.6 178.4,383.5 178.4,381.8 179.6,380.6 179.4,378.9 
			177.3,378.3 176.3,378.4 175.6,377.2 175.8,374.5 174.2,371.6 172.7,370.6 172.2,368.7 171.8,366.1 169.9,363.3 169.4,361.3 
			167.9,360.7 166.3,359.8 165.3,359.2 164.7,359.8 165.6,360.7 164.2,361.8 165.5,362.1 166.9,363.2 168.4,364.7 170.3,365.7 
			168.4,366.6 167.9,367.7 166.2,367.4 164.2,366.4 162.7,363.8 161.5,362.9 158.8,361.6 156.8,360.5 155.4,358.6 157,357.6 
			159.9,357.1 159.6,355.8 158.4,355.5 158.1,356.2 156.1,356.2 156.4,354.9 155.1,354.4 154.3,353.2 151.9,351.7 148.4,349.3 
			147.7,349.7 147,350.5 145.5,351 144.6,350.6 142.8,350.2 140.5,350.4 139.3,351.1 136.9,351.5 134.7,351.2 133.1,350.7 
			132.9,349.5 130.6,349.4 129.6,350.3 127.2,350.4 125,350.9 125,352.2 123.8,352.9 121.4,353.2 120.5,353.9 120.8,355.1 
			119.8,355.7 116.9,356.1 116.7,357.1 116.6,358.4 115.6,359 114,360.7 112.9,361.9 111.4,363.1 109.5,363.5 110,362.8 
			110.9,361.4 110.6,360.5 109.1,360.6 108.3,359.4 107.6,358.2 108.7,356.9 110,355.9 111,355.7 112,354 111.7,352 113.1,351.4 
			115.1,350.4 115.2,348.2 114.1,347.2 113,346.9 118.5,345 123,343.7 127.5,342.8 133,342.2 138,342.1 143.7,342.4 150.9,343.7 
			157.9,345.8 162.7,347.8 167.6,350.5 171.8,353.2 175.7,356.1 179.2,359.3 181.5,361.8 181.6,362.3 		"/>
		<polyline class="st2" points="168,369.5 167,370 167.4,371 168.5,372.6 168.9,373.8 169.4,375.5 171,376.9 172.2,377 171.7,376 
			170.3,374.7 170.1,374 171.6,374.6 173.1,375.4 174.5,375.8 174.5,374.6 174.5,374.5 174.6,374.4 174.6,374.3 174.6,374.2 
			174.6,373.9 174.6,373.7 174.5,373.4 174.5,373.3 174.5,373.2 174.4,373.1 173.5,372.5 170.6,371.3 169.3,370.7 168,369.5 		"/>
		<polyline class="st2" points="185.6,366.9 185.5,368.5 186,370.2 185.5,371.2 184.7,371.2 185.4,372.3 186.8,374.2 187,376.6 
			185.7,376.3 184.9,376.4 184.7,379.3 184.8,381.7 184.5,382.9 184.6,385 183.9,386.2 183.5,387.7 184.2,389.8 185.4,392.6 
			185.3,394.6 185.3,398.7 185.8,402.4 186.7,405.5 188.3,408.8 190.3,411 192.6,411.6 194,409.4 194.9,408 196.2,407.4 
			196.5,403.7 196.5,400.2 196.4,396.6 195.9,392.3 195,387.4 193.8,383.1 192.5,379.4 190.8,375.6 189.1,372.3 187,369 
			185.6,366.9 		"/>
	</g>
</g>
<g id="Layer_2">
	<path class="st3" d="M196.5,506.7c-2.7-2.7-5.6-5.3-8.2-8.1c-8.6-9.3-17.8-17.9-26.5-27c-2.2-2.3-4.4-4.6-6.6-6.9
		c-0.2-0.2-0.6-0.4-0.2-0.8c1.2-0.1,1.9,0.9,2.7,1.5c6,4.6,12.4,8.4,19.3,11.2c0.3,0.1,0.6,0.2,0.9,0.2c6.7,2.6,13.6,4.5,20.7,5.5
		c12.1,1.6,24,0.7,35.7-2.8c12-3.6,22.7-9.4,32.1-17.6c1.9-1.7,3.8-3.4,5.6-5.2c0.5-0.5,1-1,1.1-1.7c6.4-5.6,10.5-12.9,14.2-20.3
		c0.3-0.6,0.6-1.3,0.8-2c2.4-5.2,4.3-10.5,5.5-16.1c1.3-5.2,2.1-10.4,2.2-15.7c0-2.1,0.8-4.1,0-6.2c-0.1-5.9-0.7-11.7-2.3-17.4
		c-0.5-5.5-2.7-10.4-4.8-15.3c-2.6-5.9-5.7-11.5-9.6-16.6c-0.4-0.5-1-1.1-0.7-1.9c0.4-0.4,0.6,0,0.8,0.2c2.4,2.2,4.8,4.4,7.1,6.7
		c7.4,7.2,14.7,14.6,22.2,21.7c4.2,4,8.2,8.3,12.5,12.2c4.7,4.2,9,8.9,13.6,13.3c6.3,5.9,12.6,11.7,19,17.5c1.4,1.3,2.3,2.7,2.1,4.6
		c0.1,1.3-0.4,2.6-1.2,3.6c-1.6,2-3.3,3.9-5.4,5.4c-1.5,1-3.1,1.6-4.8,1.7c-6.8,0.3-13.7,0.5-20.5,0.8c-2,0.1-4.1,0.3-6.1,0.5
		c-1.9,0.2-3.1,1.2-3.7,3.1c-4,11.4-9.9,21.9-17.5,31.4c-0.5,0.6-0.9,1.3-1.5,1.8c-2.3,2-2.1,4.4-0.8,6.8c1.4,2.8,3.1,5.6,4.6,8.4
		c2.3,4.4,4.6,8.9,6.8,13.3c2.9,5.8,0.5,14-5.2,17.2c-11.7,6.7-23.3,13.4-35,20c-5.3,3-13.5,1.3-16.9-3.8c-3.6-5.4-7-11-10.5-16.5
		c-1.3-2-2.7-4-4.1-6c-0.9-1.4-2.3-1.8-3.9-1.5c-9.9,2-19.8,2.2-29.8,1.4C199,507.3,197.7,507.2,196.5,506.7z"/>
	<path class="st4" d="M196.5,506.7c-1.5,0-3.1,0-4.6-0.4c-3.2-0.9-4.8-0.4-6.6,2.3c-3.2,4.8-6.2,9.7-9.2,14.6
		c-1.6,2.5-3.3,4.9-4.9,7.4c-1,1.6-2.5,2.5-4.2,3.2c-5.3,2.2-10,1.8-15-1.3c-10.7-6.7-21.9-12.8-32.8-19.2
		c-5.2-3.1-7.3-11.2-4.6-16.6c3.1-6.4,6.5-12.6,9.9-18.9c0.8-1.5,1.4-3,2.1-4.5c0.8-1.8,0.5-3.5-0.8-5c-8.3-9.8-14.6-20.7-18.9-32.7
		c-0.9-2.5-2.7-3.5-5.2-3.8c-6.4-0.6-12.8-0.3-19.2-0.8c-2.3-0.2-4.6-0.2-6.9-0.4c-5.3-0.5-11.3-6.8-11.3-12.1
		c-0.1-14-0.1-28-0.1-42.1c0-2.4,0.8-4.5,2.5-6.2c0.5-0.5,1-1,1.5-1.5c2.5-3.2,5.9-4.5,9.9-4.4c7.4,0,14.7-1,22-0.8
		c4,0.1,5.4-1.1,6.8-4.8c4.4-11.8,10.6-22.5,18.7-32.2c1.4-1.7,1.5-3.3,0.7-5.1c-3.1-7-6.9-13.6-10.6-20.2
		c-2.8-5.1-2.7-9.9-0.7-15.1c0.9-2.3,2.7-3.5,4.6-4.7c6.2-3.6,12.4-7.3,18.6-10.9c5.5-3.2,11.1-6.4,16.6-9.6
		c2.1-1.2,4.2-1.7,6.6-1.3c4.9,0.8,9,2.7,11.6,7.4c3.5,6.2,7.8,11.9,11.3,18.1c0.3,0.6,0.7,1.1,1.1,1.6c1.3,1.6,2.7,2.5,5.1,2
		c6.2-1.4,12.7-1.8,19-1.9c6.9-0.1,13.8,0.5,20.6,1.9c1.8,0.4,2.8-0.2,3.8-1.4c1.9-2.5,3.6-5.2,5.2-7.8c2.6-4.2,5.5-8.4,7.9-12.7
		c2.1-3.6,5-5.5,9-6.6c3.4-0.9,6.5-0.7,9.5,1.1c11.5,6.7,23.1,13.2,34.6,19.9c5.8,3.4,8.2,11.4,5.1,17.4
		c-3.5,6.9-6.8,13.9-10.8,20.6c-0.5,0.9-0.9,1.9-1.2,2.8c-0.3,1.3-0.3,2.5,0.7,3.7c8.7,10,15.2,21.3,19.7,33.8
		c1.1,2.9,2.2,3.9,5.4,4c4.4,0,8.8,0.2,13.2,0.4c4.1,0.2,8.3,0.4,12.4,0.7c2.1,0.2,4,1,5.5,2.5c1.3,1.3,2.5,2.6,3.7,3.9
		c1.3,1.4,1.9,3.2,1.9,5.1c0,14.2,0,28.4-0.1,42.6c0,0.4,0,0.9-0.3,1.3c-1-4.7-5.3-6.6-8.3-9.6c-1.8-1.8-3.9-3.5-5.8-5.3
		c-3.9-3.9-8.1-7.5-11.9-11.4c-6.3-6.4-12.8-12.5-19.3-18.8c-4.9-4.8-9.7-9.7-14.7-14.4c-5.6-5.2-10.9-10.6-16.5-15.8
		c-0.3-0.3-0.7-0.6-1.1-0.8c-2.6-2.6-4.7-5.6-7.4-8.1c-5.6-5.3-11.6-10.3-18.5-13.8c-28.6-15.2-57.1-14.9-85.5,0.8
		c-4.2,2.4-8.1,5.2-11.9,8.3c-5.3,4.4-9.9,9.3-13.8,15c-7.3,9.5-12,20.3-14.7,32c-0.8,3.5-1.4,7-1.7,10.6c-0.3,0.7-0.1,1.4-0.1,2.1
		c-0.4,9.8,0,19.5,2.8,28.9c0.2,0.9,0.4,1.7,0.8,2.5c1.1,5.5,3.7,10.4,6.1,15.4c3.1,6.3,7.3,11.8,11.8,17.1c2.8,3.3,6.1,6,9.1,9.1
		c0.2,0.6,0.6,1,1,1.4c8.5,9.1,17.4,17.8,26.2,26.6c3.4,3.4,6.5,7.2,10.1,10.5c1,1,2,2,3.1,2.9C196.1,505.4,196.8,505.8,196.5,506.7
		z"/>
	<g>
		<path class="st5" d="M124.6,389c-0.1,0.4-0.2,0.8-0.4,1.2c-0.5-0.5-0.4-1,0-1.5C124.3,388.8,124.4,388.9,124.6,389z"/>
	</g>
	<g>
		<g>
			<path class="st6" d="M210.4,311.6c47.6,0,86.3,38.5,86.6,86.1v-0.5c0-47.8-38.8-86.6-86.6-86.6s-86.6,38.8-86.6,86.6v0.5
				C124.1,350,162.8,311.6,210.4,311.6z"/>
			<path class="st7" d="M210.4,482.7c-47.6,0-86.3-38.5-86.6-86.1v0.5c0,47.8,38.8,86.6,86.6,86.6S297,445,297,397.1v-0.5
				C296.7,444.3,258.1,482.7,210.4,482.7z"/>
		</g>
	</g>
</g>
</svg>
