<?xml version="1.0" encoding="utf-8"?>
<!-- Generator: Adobe Illustrator 23.0.1, SVG Export Plug-In . SVG Version: 6.00 Build 0)  -->
<svg version="1.1" xmlns="http://www.w3.org/2000/svg" xmlns:xlink="http://www.w3.org/1999/xlink" x="0px" y="0px"
	 viewBox="0 0 642.1 543.3" style="enable-background:new 0 0 642.1 543.3;" xml:space="preserve">
<style type="text/css">
	.st0{fill:#FFFFFF;}
	.st1{fill:#8B8B8B;}
	.st2{fill:#9C9C9C;}
	.st3{fill:#FEFEFE;}
	.st4{fill:#547DBE;}
	.st5{fill:#C2C2C2;}
	.st6{fill:#C2C6D1;}
	.st7{fill:#3767B0;}
	.st8{fill:#255FDB;}
	.st9{fill:#4285F4;}
	.st10{fill:#91BFFF;}
	.st11{fill:#C4E1FF;}
	.st12{fill:#F5F5F5;}
	.st13{fill:#FFFFFF;fill-opacity:0.2;}
	.st14{fill:#1A237E;fill-opacity:0.2;}
	.st15{fill:url(#SVGID_1_);fill-opacity:0.1;}
</style>
<g id="Layer_1">
	<title>logo_white</title>
	<g>
		<path class="st0" d="M642.1,172.9v98.8c-0.2,13.6-11.1,24.5-24.7,24.7h-24.7c-13.6-0.2-24.5-11.1-24.7-24.7v-98.8
			c0-27.3-9.6-50.5-28.9-69.8s-42.6-28.9-69.8-28.9c-27.3,0-50.5,9.7-69.8,29c-19.3,19.3-28.9,42.6-29,69.8v74h37
			c20.4-0.1,36.9,16.4,37,36.8c0,0.1,0,0.2,0,0.3v222.3c0.1,20.4-16.4,36.9-36.8,37c-0.1,0-0.1,0-0.2,0H37.1
			c-20.4,0.1-36.9-16.4-37-36.8c0-0.1,0-0.1,0-0.2V284c-0.1-20.4,16.4-37,36.7-37c0.1,0,0.2,0,0.3,0h259.3v-74.1
			c0-47.6,16.9-88.3,50.8-122.1S421.7,0,469.2,0c47.6,0,88.3,16.9,122.1,50.8C625.2,84.6,642.1,125.3,642.1,172.9z"/>
	</g>
</g>
<g id="Layer_2">
	<path class="st1" d="M196.5,506.7c-2.7-2.7-5.6-5.3-8.2-8.1c-8.6-9.3-17.8-17.9-26.5-27c-2.2-2.3-4.4-4.6-6.6-6.9
		c-0.2-0.2-0.6-0.4-0.2-0.8c1.2-0.1,1.9,0.9,2.7,1.5c6,4.6,12.4,8.4,19.3,11.2c0.3,0.1,0.6,0.2,0.9,0.2c6.7,2.6,13.6,4.5,20.7,5.5
		c12.1,1.6,24,0.7,35.7-2.8c12-3.6,22.7-9.4,32.1-17.6c1.9-1.7,3.8-3.4,5.6-5.2c0.5-0.5,1-1,1.1-1.7c6.4-5.6,10.5-12.9,14.2-20.3
		c0.3-0.6,0.6-1.3,0.8-2c2.4-5.2,4.3-10.5,5.5-16.1c1.3-5.2,2.1-10.4,2.2-15.7c0-2.1,0.8-4.1,0-6.2c-0.1-5.9-0.7-11.7-2.3-17.4
		c-0.5-5.5-2.7-10.4-4.8-15.3c-2.6-5.9-5.7-11.5-9.6-16.6c-0.4-0.5-1-1.1-0.7-1.9c0.4-0.4,0.6,0,0.8,0.2c2.4,2.2,4.8,4.4,7.1,6.7
		c7.4,7.2,14.7,14.6,22.2,21.7c4.2,4,8.2,8.3,12.5,12.2c4.7,4.2,9,8.9,13.6,13.3c6.3,5.9,12.6,11.7,19,17.5c1.4,1.3,2.3,2.7,2.1,4.6
		c0.1,1.3-0.4,2.6-1.2,3.6c-1.6,2-3.3,3.9-5.4,5.4c-1.5,1-3.1,1.6-4.8,1.7c-6.8,0.3-13.7,0.5-20.5,0.8c-2,0.1-4.1,0.3-6.1,0.5
		c-1.9,0.2-3.1,1.2-3.7,3.1c-4,11.4-9.9,21.9-17.5,31.4c-0.5,0.6-0.9,1.3-1.5,1.8c-2.3,2-2.1,4.4-0.8,6.8c1.4,2.8,3.1,5.6,4.6,8.4
		c2.3,4.4,4.6,8.9,6.8,13.3c2.9,5.8,0.5,14-5.2,17.2c-11.7,6.7-23.3,13.4-35,20c-5.3,3-13.5,1.3-16.9-3.8c-3.6-5.4-7-11-10.5-16.5
		c-1.3-2-2.7-4-4.1-6c-0.9-1.4-2.3-1.8-3.9-1.5c-9.9,2-19.8,2.2-29.8,1.4C199,507.3,197.7,507.2,196.5,506.7z"/>
	<path class="st2" d="M196.5,506.7c-1.5,0-3.1,0-4.6-0.4c-3.2-0.9-4.8-0.4-6.6,2.3c-3.2,4.8-6.2,9.7-9.2,14.6
		c-1.6,2.5-3.3,4.9-4.9,7.4c-1,1.6-2.5,2.5-4.2,3.2c-5.3,2.2-10,1.8-15-1.3c-10.7-6.7-21.9-12.8-32.8-19.2
		c-5.2-3.1-7.3-11.2-4.6-16.6c3.1-6.4,6.5-12.6,9.9-18.9c0.8-1.5,1.4-3,2.1-4.5c0.8-1.8,0.5-3.5-0.8-5c-8.3-9.8-14.6-20.7-18.9-32.7
		c-0.9-2.5-2.7-3.5-5.2-3.8c-6.4-0.6-12.8-0.3-19.2-0.8c-2.3-0.2-4.6-0.2-6.9-0.4c-5.3-0.5-11.3-6.8-11.3-12.1
		c-0.1-14-0.1-28-0.1-42.1c0-2.4,0.8-4.5,2.5-6.2c0.5-0.5,1-1,1.5-1.5c2.5-3.2,5.9-4.5,9.9-4.4c7.4,0,14.7-1,22-0.8
		c4,0.1,5.4-1.1,6.8-4.8c4.4-11.8,10.6-22.5,18.7-32.2c1.4-1.7,1.5-3.3,0.7-5.1c-3.1-7-6.9-13.6-10.6-20.2
		c-2.8-5.1-2.7-9.9-0.7-15.1c0.9-2.3,2.7-3.5,4.6-4.7c6.2-3.6,12.4-7.3,18.6-10.9c5.5-3.2,11.1-6.4,16.6-9.6
		c2.1-1.2,4.2-1.7,6.6-1.3c4.9,0.8,9,2.7,11.6,7.4c3.5,6.2,7.8,11.9,11.3,18.1c0.3,0.6,0.7,1.1,1.1,1.6c1.3,1.6,2.7,2.5,5.1,2
		c6.2-1.4,12.7-1.8,19-1.9c6.9-0.1,13.8,0.5,20.6,1.9c1.8,0.4,2.8-0.2,3.8-1.4c1.9-2.5,3.6-5.2,5.2-7.8c2.6-4.2,5.5-8.4,7.9-12.7
		c2.1-3.6,5-5.5,9-6.6c3.4-0.9,6.5-0.7,9.5,1.1c11.5,6.7,23.1,13.2,34.6,19.9c5.8,3.4,8.2,11.4,5.1,17.4
		c-3.5,6.9-6.8,13.9-10.8,20.6c-0.5,0.9-0.9,1.9-1.2,2.8c-0.3,1.3-0.3,2.5,0.7,3.7c8.7,10,15.2,21.3,19.7,33.8
		c1.1,2.9,2.2,3.9,5.4,4c4.4,0,8.8,0.2,13.2,0.4c4.1,0.2,8.3,0.4,12.4,0.7c2.1,0.2,4,1,5.5,2.5c1.3,1.3,2.5,2.6,3.7,3.9
		c1.3,1.4,1.9,3.2,1.9,5.1c0,14.2,0,28.4-0.1,42.6c0,0.4,0,0.9-0.3,1.3c-1-4.7-5.3-6.6-8.3-9.6c-1.8-1.8-3.9-3.5-5.8-5.3
		c-3.9-3.9-8.1-7.5-11.9-11.4c-6.3-6.4-12.8-12.5-19.3-18.8c-4.9-4.8-9.7-9.7-14.7-14.4c-5.6-5.2-10.9-10.6-16.5-15.8
		c-0.3-0.3-0.7-0.6-1.1-0.8c-2.6-2.6-4.7-5.6-7.4-8.1c-5.6-5.3-11.6-10.3-18.5-13.8c-28.6-15.2-57.1-14.9-85.5,0.8
		c-4.2,2.4-8.1,5.2-11.9,8.3c-5.3,4.4-9.9,9.3-13.8,15c-7.3,9.5-12,20.3-14.7,32c-0.8,3.5-1.4,7-1.7,10.6c-0.3,0.7-0.1,1.4-0.1,2.1
		c-0.4,9.8,0,19.5,2.8,28.9c0.2,0.9,0.4,1.7,0.8,2.5c1.1,5.5,3.7,10.4,6.1,15.4c3.1,6.3,7.3,11.8,11.8,17.1c2.8,3.3,6.1,6,9.1,9.1
		c0.2,0.6,0.6,1,1,1.4c8.5,9.1,17.4,17.8,26.2,26.6c3.4,3.4,6.5,7.2,10.1,10.5c1,1,2,2,3.1,2.9C196.1,505.4,196.8,505.8,196.5,506.7
		z"/>
	<g>
		<path class="st3" d="M124.2,388.7c1.3-15.3,6.7-29.2,15.5-41.8c0.3-0.5,0.7-0.9,1.1-1.3c6.6-5.5,14.2-8.1,22.7-8.5
			c12-0.7,23,2.6,33.8,7.4c16.6,7.4,31.4,17.7,45.7,28.7c5.5,4.2,10.8,8.6,16.1,13.1c0.8,0.7,1.7,1.4,2.2,2.3
			c0.3,0.7,0.2,1.4,0.1,2.1c-2.6,9.6-6.6,18.6-12.7,26.5c-0.3,0.4-0.5,0.7-0.9,0.9c-0.9,0.4-1.6-0.1-2.4-0.4
			c-9.1-3.9-17.8-8.7-26.5-13.5c-11.3-6.3-22.5-12.8-34.2-18.3c-10.2-4.9-20.7-9.1-31.9-11.4c-4.9-1-9.7-0.9-14.4,0.7
			c-6.1,2-9.9,6.3-12.5,12c-0.3,0.7-0.5,1.5-1.1,2C124.4,389.2,124.2,389.1,124.2,388.7z"/>
		<path class="st4" d="M124.6,389c4.5-12.9,15.3-17.4,27.8-15.1c11.7,2.2,22.6,6.8,33.3,11.9c15.5,7.4,30.1,16.4,45.3,24.4
			c4.8,2.5,9.7,4.9,14.7,7.1c0.6,0.3,1.2,0.7,2,0.6c0.1,0.2,0.1,0.3,0.1,0.5c-6.4,7.9-13.9,14.6-22.9,19.4c-0.3,0.1-0.6,0.1-0.9,0.1
			c-13.2-2.1-25.9-5.8-38.6-9.8c-11.5-3.6-22.7-8-34.4-10.8c-4.4-1-8.9-1.7-13.5-1.3c-3.5,0.4-6.1,2.1-8,4.9
			c-0.4,0.6-0.6,1.3-1.3,1.6c-0.8-0.2-0.8-0.9-1-1.5c-1.3-5.1-2.4-10.3-2.9-15.6c-0.4-4.5-0.2-8.9-0.3-13.4c0-0.6,0.2-1.3,0.3-1.9
			C124,389.7,124.2,389.4,124.6,389z"/>
		<path class="st4" d="M261.1,388.8c-17.3-15-35.3-29-55.7-39.7c-9.4-5-19.1-9-29.6-10.8c-12.4-2.1-23.9-0.4-34.3,7.1
			c-0.2,0.1-0.5,0.2-0.7,0.2c2.8-4.3,6.2-8.1,9.9-11.6c3.7-3.5,7.7-6.7,12-9.4c1.1-0.7,2.3-1.4,3.4-2c5-2.1,10.1-3.4,15.5-4
			c6.5-0.7,12.9-0.3,19.2,1.2c10.1,2.3,19.3,6.8,28,12.3c9.1,5.9,17.5,12.7,25.4,20.1c3.1,2.9,5.8,6.2,8.9,9c0.4,0.5,0.8,1,0.7,1.8
			c-0.1,7.5,0.4,15-1.2,22.5c-0.2,1.1-0.2,2.3-1,3.2C261.5,388.8,261.3,388.8,261.1,388.8z"/>
		<path class="st5" d="M224.2,437.6c0.2,0,0.5,0,0.7,0c0.8-0.1,1.5-0.2,2.3-0.1c9.1,1.5,18.2,2.7,27.4,3c6.8,0.3,13.4-0.2,20-1.4
			c4.2-0.8,8.1-2.5,11.5-5c0.7-0.5,1.3-1.1,2.2-0.9c-0.4,2.6-2,4.8-3.2,7c-2.6,4.7-5.8,9-9.1,13.2c-0.7,0.9-1.7,1.3-2.7,1.7
			c-0.3,0.9-1.2,1.1-2,1.4c-7.1,3-14.5,4.6-22.1,5.3c-5.2,0.5-10.5,1-15.7,0.8c-14.8-0.5-29.6-1.7-44.2-4.7c-3.3-0.7-6.6-1-9.9-0.3
			c-3.3,0.7-4.9,2.7-5.1,6c-0.2,4,1.2,7.5,2.7,11.1c0.4,0.9,1,1.7,0.5,2.7c-7.3-2.8-13.9-6.7-20.1-11.5c-0.9-0.7-1.7-1.3-2.6-2
			c-8.7-7.4-16-15.9-21.1-26.2c0.8-0.5,1.5,0.1,2.1,0.4c10.5,5.8,21.8,9.2,33.8,10.3c18,1.6,35.2-1.5,51.4-9.7
			C222.1,438.3,223.1,437.9,224.2,437.6z"/>
		<path class="st3" d="M224.2,437.6c-2.8,2.2-6.1,3.4-9.3,4.8c-8.2,3.5-16.8,5.7-25.6,6.6c-18.4,1.9-36-0.9-52.4-9.6
			c-1-0.5-1.8-1.3-2.9-1.5c-2.3-4.1-4.1-8.3-5.6-12.7c-0.3-0.8-0.7-1.7-0.3-2.6c2.4-6,7.2-7.5,13.4-7.1c11.8,0.7,22.7,5.2,33.8,8.8
			c13.2,4.3,26.4,8.7,40.1,11.5C218.3,436.4,221.2,437,224.2,437.6z"/>
		<path class="st3" d="M263,361.5c-1.5-0.9-2.5-2.4-3.7-3.6c-13.2-13.5-27.7-25.2-45-33.1c-9.5-4.3-19.4-6.6-29.9-6
			c-5.4,0.3-10.6,1.4-15.7,3.3c-0.8,0.3-1.7,0.7-2.6,0.6c5.3-3.5,11-5.9,16.9-7.8c9.8-3.3,19.8-4.8,30.1-4.4
			c13.3,0.5,25.8,3.9,37.5,10.1c0.7,0.4,1.3,0.8,1.9,1.3c0.5,0.5,0.9,1.1,1.2,1.7c4.7,11.6,8.2,23.6,9.5,36.1
			C263.4,360.3,263.5,361,263,361.5z"/>
		<path class="st5" d="M263,361.5c-1.2-12.7-4.5-24.8-9.2-36.6c-0.4-1-0.7-2-1.1-3c3.7,1.5,6.8,4,10,6.4c6,4.4,11.1,9.8,15.8,15.6
			c6.5,8.4,11.3,17.7,14.5,27.9c0.5,1.8,1.6,3.5,0.9,5.5c-0.5,1.9-3.1,3.4-5.6,3.1c-2.1-0.3-4.1-1-6-2c-6.8-3.8-12.5-9.1-17.9-14.6
			c-0.3-0.3-0.5-0.6-0.5-1C263.5,362.2,263.3,361.8,263,361.5z"/>
		<path class="st6" d="M124.6,389c-0.1,0.4-0.2,0.8-0.4,1.2c-0.5-0.5-0.4-1,0-1.5C124.3,388.8,124.4,388.9,124.6,389z"/>
		<path class="st7" d="M177.7,477.5c-1.4-3.4-3.1-6.7-3.7-10.4c-0.3-1.7-0.4-3.3,0-5c0.6-3.2,3.3-5,7.5-5.4c4.6-0.4,9,1,13.4,1.7
			c8.4,1.3,16.8,2.3,25.3,2.9c5.8,0.4,11.6,0.8,17.4,0.6c12.3-0.3,24.5-1.6,35.9-6.9c0.3,0.7,0.3,1-0.4,1.6
			c-1.8,1.7-3.6,3.5-5.4,5.1c-12.2,10.8-26.3,17.6-42.3,20.6c-4.9,0.9-9.9,1.4-14.8,1.4c-8.3-0.1-16.6-1.1-24.7-3.6
			C183.1,479.4,180.4,478.4,177.7,477.5z"/>
		<path class="st5" d="M261.1,388.8c0.1,0,0.2,0,0.4,0c1.1,0.2,1.8,1,2.6,1.6c5.3,3.9,10.6,7.7,16.8,9.9c5.9,2,10,0.8,13.9-4.1
			c0.4-0.5,0.7-1.1,1.4-1.2c1.4,0.9,0.7,2.4,0.6,3.5c-0.4,4.7-0.4,9.4-1.4,14c-0.4,1.6-0.5,3.3-1.2,4.8c-1.7,2.5-4.3,3.8-7,4.8
			c-6.4,2.3-13.1,2.7-19.8,2.1c-5.8-0.4-11.3-2.2-16.7-4.1c-1-0.4-2.3-0.5-2.9-1.7c0-0.1-0.1-0.2-0.1-0.3c2.9-4.2,5.9-8.5,8.1-13.1
			c2.2-4.6,3.8-9.4,5.2-14.3C261.1,389.9,261,389.3,261.1,388.8z"/>
		<path class="st7" d="M247.7,418.2c5.4,2.1,10.8,4.1,16.5,4.9c7,1,14,0.7,20.9-1.1c3.4-0.9,6.3-2.8,9-4.9
			c-1.2,5.6-2.9,11.1-5.7,16.1c-6.6,5.5-14.4,7.2-22.6,7.7c-13,0.9-25.7-0.8-38.5-2.9c-0.8-0.1-1.7,0.1-2.4-0.5
			c4.1-2.8,8.4-5.3,12.1-8.6c3.1-2.7,6-5.7,8.7-8.8C246.3,419.5,246.9,418.8,247.7,418.2z"/>
		<path class="st7" d="M296.1,394.8c-2.2,3.6-5.1,6.2-9.4,6.8c-1.6,0.2-3.2,0-4.7-0.5c-7.8-2.5-14.4-7.1-20.5-12.3
			c1.9-7.5,2.1-15.2,2-22.9c0-1.1-0.4-2.3,0.4-3.3c4.1,3.9,8.1,8,12.7,11.3c3.3,2.4,6.6,4.8,10.7,5.6c2.7,0.5,4.9-0.2,6.6-2.4
			c1.3,1.9,1.2,4.2,1.6,6.4c0.6,3.1,0.8,6.2,1,9.3C296.5,393.5,296.5,394.2,296.1,394.8z"/>
	</g>
	<g>
		<g>
			<path class="st8" d="M183.6,415.2c-29.5-39-59.8-9.4-51.9,17.9c19.9,43.5,71.3,62.7,114.8,42.8c15-6.9,27.7-17.9,36.7-31.7
				C260.4,465.5,218.9,461.9,183.6,415.2z"/>
			<path class="st9" d="M210,388.3c-40.6-61.6-86.1-28.8-86.1,8.9c0,12.5,2.7,24.8,7.9,36.1c-5.4-25.5,23.9-45.1,51.2-8.6
				c39.6,53.1,78.5,43.8,100.2,19.6c7-10.7,11.5-22.9,13.2-35.5v0.2C287,437.9,245.8,442.6,210,388.3z"/>
			<path class="st10" d="M237.8,360.7c-30.1-49.7-68.4-45.3-94.2-18.6c-12.8,15.5-19.7,34.9-19.7,55c2.7-36.4,46.7-61.7,86.6,0
				c35.4,54.9,79.5,40.6,85.8,11.9v-0.3c0.5-3.9,0.8-7.9,0.7-11.8V393C281.6,404,261.4,399.8,237.8,360.7z"/>
			<path class="st11" d="M238,369.6c27.6,44.4,51.4,33,59,23.5c-0.3-6.6-1.4-13.2-3.2-19.6c-12.9,0.3-15.9-1.9-28.5-21.2
				c-19.4-29.7-43.7-49.7-86.3-35.9c-13.8,5.4-26,14.3-35.4,25.7C172.8,315.2,208.7,322.5,238,369.6z"/>
			<path class="st12" d="M263.4,356.2c12.6,19.3,20.3,20.3,30.4,17.3c-13.1-46.1-61.1-72.8-107.1-59.7c-2.6,0.7-5.2,1.6-7.7,2.6
				C217,304.5,244,326.5,263.4,356.2z"/>
		</g>
		<g>
			<path class="st13" d="M210.4,311.6c47.6,0,86.3,38.5,86.6,86.1v-0.5c0-47.8-38.8-86.6-86.6-86.6s-86.6,38.8-86.6,86.6v0.5
				C124.1,350,162.8,311.6,210.4,311.6z"/>
			<path class="st14" d="M210.4,482.7c-47.6,0-86.3-38.5-86.6-86.1v0.5c0,47.8,38.8,86.6,86.6,86.6S297,445,297,397.1v-0.5
				C296.7,444.3,258.1,482.7,210.4,482.7z"/>
		</g>
		
			<radialGradient id="SVGID_1_" cx="933.3937" cy="-3515.3599" r="0.9773" gradientTransform="matrix(176 0 0 176 -164127.2813 619040.0625)" gradientUnits="userSpaceOnUse">
			<stop  offset="0" style="stop-color:#FFFFFF"/>
			<stop  offset="1" style="stop-color:#FFFFFF;stop-opacity:0"/>
		</radialGradient>
		<circle class="st15" cx="210.4" cy="397.1" r="86.6"/>
	</g>
</g>
</svg>
