<?xml version="1.0" encoding="utf-8"?>
<!-- Generator: Adobe Illustrator 23.0.1, SVG Export Plug-In . SVG Version: 6.00 Build 0)  -->
<svg version="1.1" id="Layer_1" xmlns="http://www.w3.org/2000/svg" xmlns:xlink="http://www.w3.org/1999/xlink" x="0px" y="0px"
	 viewBox="0 0 642.1 543.3" style="enable-background:new 0 0 642.1 543.3;" xml:space="preserve">
<style type="text/css">
	.st0{fill:#FFFFFF;}
	.st1{display:none;}
	.st2{display:inline;}
	.st3{fill:#A5A5A5;}
	.st4{fill:#DFDFDE;}
	.st5{display:inline;fill:#FFFFFF;}
	.st6{display:inline;opacity:0.3;fill:#010101;fill-opacity:0.99;enable-background:new    ;}
	.st7{fill:#4A69B1;}
</style>
<title>logo_white</title>
<g>
	<path class="st0" d="M642.1,172.9v98.8c-0.2,13.6-11.1,24.5-24.7,24.7h-24.7c-13.6-0.2-24.5-11.1-24.7-24.7v-98.8
		c0-27.3-9.6-50.5-28.9-69.8s-42.6-28.9-69.8-28.9c-27.3,0-50.5,9.7-69.8,29c-19.3,19.3-28.9,42.6-29,69.8v74h37
		c20.4-0.1,36.9,16.4,37,36.8c0,0.1,0,0.2,0,0.3v222.3c0.1,20.4-16.4,36.9-36.8,37c-0.1,0-0.1,0-0.2,0H37.1
		c-20.4,0.1-36.9-16.4-37-36.8c0-0.1,0-0.1,0-0.2V284c-0.1-20.4,16.4-37,36.7-37c0.1,0,0.2,0,0.3,0h259.3v-74.1
		c0-47.6,16.9-88.3,50.8-122.1S421.7,0,469.2,0c47.6,0,88.3,16.9,122.1,50.8C625.2,84.6,642.1,125.3,642.1,172.9z"/>
</g>
<g class="st1">
	<g id="g4148" class="st2">
		<path id="path2986-2" class="st3" d="M156.2,501.9c-1.7-2.1-2.7-4.7-2.7-7.4c0-1.3,1.4-5.9,3.9-13c2.2-6,4-11.5,4-12.2
			c0-0.9-1-2.2-3.9-4.8c-2.5-2.3-4.8-4.7-7-7.2c-1.2-1.5-2.6-2.8-4.1-4c-0.6-0.3-5.3,1.1-12.3,3.5c-6.2,2.1-12.2,4-13.2,4
			c-2.2,0.2-6.3-1.4-8.1-3.1c-1.4-1.3-11.7-26.2-11.9-28.9s1.6-6.5,3.9-8.4c1-0.9,6.7-3.7,12.5-6.3c6.3-2.8,10.8-5.2,11-5.8
			c0.3-1.9,0.3-3.8,0.1-5.7c-0.2-3.3-0.2-6.7,0-10c0.2-2.9,0.1-5.6-0.3-6s-5.3-3.1-11.1-5.9c-6.7-3.3-11.1-5.7-12.3-6.8
			c-2.2-2-3.8-6.4-3.2-8.8c0.2-1,3-7.7,6.2-15l5.8-13.2l2.3-1.3c4.1-2.2,5.6-2,18.8,2.6c7.5,2.6,12.1,4,12.7,3.8
			c1.7-1.4,3.3-2.9,4.8-4.5c2.2-2.3,5.4-5.4,7.1-6.9c1.3-1,2.5-2.2,3.5-3.5c0.2-0.5-1.3-5.5-3.3-11.2s-3.9-11.2-4.1-12.3
			c-0.8-3.1-0.1-6.3,1.8-8.8c1.5-1.9,2.9-2.7,14.5-7.5c7.1-2.9,13.9-5.4,15.2-5.5c3.2-0.1,6.3,1.2,8.5,3.6c0.8,0.9,3.6,6.4,6.2,12.2
			s5,10.8,5.3,11.1s3,0.5,6.4,0.4c3.2-0.1,7.9-0.1,10.5,0.1c3.4,0.3,4.9,0.1,5.7-0.6c0.6-0.5,3.4-5.7,6.2-11.4
			c5.5-11.1,6.6-12.7,10-14.1c3.8-1.6,5.4-1.2,19.8,5.1l13.2,5.8l1.5,2.3c2.6,3.9,2.4,5.5-2.1,18.5c-2.2,6.3-4.1,12-4.2,12.6
			c-0.2,0.9,0.7,2,3.7,4.7c2.6,2.4,5,5,7.4,7.6c1.2,1.5,2.5,2.9,3.9,4.3c0.2,0.1,5.5-1.6,11.8-3.9s12.4-4.1,13.6-4.2
			c3.3-0.1,6.4,1.2,8.6,3.7c1,1.1,3.6,6.8,6.6,14.5c5.2,13.1,5.5,14.5,3.7,18.7c-1.3,3-3.4,4.4-14.9,9.6c-6.3,2.9-11.5,5.4-11.6,5.7
			c-0.1,2.2-0.1,4.4,0.1,6.7c0.2,3.5,0.1,6.9-0.1,10.4c-0.3,2.9-0.2,4.4,0.4,5s5.8,3.3,11.8,6.3c12,6,13.7,7.3,14.6,11.1
			c0.8,3.6,0.1,5.7-5.7,19l-5.6,12.7l-2.4,1.5c-4.3,2.7-5.1,2.6-19.1-2.3c-6.9-2.4-12.6-4.3-12.8-4.2c-1.3,1.3-2.6,2.6-3.8,4
			c-2.4,2.5-4.9,5-7.6,7.3c-2.3,1.9-4.1,3.8-4.2,4.2s1.6,5.7,3.8,11.7s4,12.2,4.1,13.6c0.3,3-0.8,6-3,8.1
			c-1.9,1.9-25.1,11.5-28.3,11.7c-3.2,0-6.3-1.2-8.6-3.4c-0.7-0.8-3.6-6.3-6.4-12.4s-5.4-11.2-5.8-11.4c-2.2-0.2-4.4-0.3-6.6-0.1
			c-3.2,0.1-7.9,0-10.3-0.2c-3.4-0.3-4.7-0.2-5.2,0.6c-0.4,0.5-3.1,5.8-6.1,11.7c-6.6,13.1-7.7,14.3-13.4,14.7
			c-1.6,0.1-4-0.7-15.3-5.6C160.7,504.6,157.1,502.9,156.2,501.9L156.2,501.9z M201.2,450.5c12.1,3.9,25.2,3.3,36.9-1.6
			c9.1-3.6,17.1-9.7,23.1-17.5c4.1-5.1,9.5-18,10.4-24.5c2.9-19.4-4.7-38.8-19.9-51.2c-3.6-3-4.6-3.6-12.6-7
			c-7.6-3.3-9.3-3.8-13.5-4.4c-20.6-2.9-41,6-53,23c-10.5,15.1-12.7,34.6-5.7,51.6c3.8,9.2,9.9,17.3,17.9,23.4
			c3.4,2.4,6.9,4.5,10.7,6.4C195.9,448.8,198.5,449.7,201.2,450.5L201.2,450.5z M197.7,424.3c-11.2-8.6-15.6-23.4-10.9-36.8
			c3-9,9.8-16.1,18.6-19.4c16.5-6.8,35.4,1.1,42.2,17.6c0,0,0,0,0,0c5.5,13.6,2.1,28.1-8.9,37.4c-9,7.9-21.6,10.1-32.8,5.6
			C203,427.8,200.2,426.3,197.7,424.3L197.7,424.3z M217.3,417.8c4.1,0.2,11.2-2,14.5-4.8c2.3-2,2.8-2.8,4.7-7.2
			c2-4.7,0.8-5.2,0.4-8.9c-0.7-7.4-4.3-12.5-11-15.8c-5.4-2.6-9.2-2.9-14.7-0.9c-6.8,2.2-11.7,8-12.8,15.1c-1,5.6,0.6,11.4,4.4,15.7
			C206.4,415.3,211.7,417.8,217.3,417.8z"/>
		<path id="path2986-1" class="st4" d="M156.2,496.7c-1.7-2.1-2.7-4.7-2.7-7.4c0-1.3,1.4-5.9,3.9-13c2.2-6,4-11.5,4-12.2
			c0-0.9-1-2.2-3.9-4.8c-2.5-2.3-4.8-4.7-7-7.2c-1.2-1.5-2.6-2.8-4.1-4c-0.6-0.3-5.3,1.1-12.3,3.5c-6.2,2.1-12.2,4-13.2,4
			c-2.2,0.2-6.3-1.4-8.1-3.1c-1.4-1.3-11.7-26.2-11.9-28.9s1.6-6.5,3.9-8.4c1-0.9,6.7-3.7,12.5-6.3c6.3-2.8,10.8-5.2,11-5.8
			c0.3-1.9,0.3-3.8,0.1-5.7c-0.2-3.3-0.2-6.7,0-10c0.2-2.9,0.1-5.6-0.3-6s-5.3-3.1-11.1-5.9c-6.7-3.3-11.1-5.7-12.3-6.8
			c-2.2-2-3.8-6.4-3.2-8.8c0.2-1,3-7.7,6.2-15l5.8-13.2l2.3-1.3c4.1-2.3,5.6-2,18.8,2.6c7.5,2.6,12.1,4,12.7,3.8
			c1.7-1.4,3.3-2.9,4.8-4.5c2.2-2.3,5.4-5.4,7.1-6.9c1.3-1,2.5-2.2,3.5-3.5c0.2-0.5-1.3-5.5-3.3-11.2s-3.9-11.2-4.1-12.3
			c-0.8-3.1-0.1-6.3,1.8-8.8c1.5-1.9,2.9-2.7,14.5-7.5c7.1-2.9,13.9-5.4,15.2-5.5c3.2-0.1,6.3,1.2,8.5,3.5c0.8,0.9,3.6,6.4,6.2,12.2
			s5,10.8,5.3,11.2s3,0.5,6.4,0.4c3.2-0.1,7.9-0.1,10.5,0.1c3.4,0.3,4.9,0.1,5.7-0.6c0.6-0.5,3.4-5.7,6.2-11.4
			c5.5-11.1,6.6-12.7,10-14.1c3.8-1.6,5.4-1.2,19.8,5.1l13.2,5.8l1.5,2.3c2.6,3.9,2.4,5.5-2.1,18.5c-2.2,6.3-4.1,12-4.2,12.6
			c-0.2,0.9,0.7,2,3.7,4.7c2.6,2.4,5,4.9,7.4,7.6c1.2,1.5,2.5,2.9,3.9,4.3c0.2,0.1,5.5-1.6,11.8-3.9s12.4-4.1,13.6-4.2
			c3.3-0.1,6.4,1.3,8.6,3.7c1,1.1,3.6,6.8,6.6,14.4c5.2,13.1,5.5,14.5,3.7,18.7c-1.3,3-3.4,4.4-14.9,9.6c-6.3,2.9-11.5,5.4-11.6,5.7
			c-0.1,2.2-0.1,4.5,0.1,6.7c0.2,3.5,0.1,6.9-0.1,10.4c-0.3,2.8-0.2,4.4,0.4,5s5.8,3.3,11.8,6.3c12,6,13.7,7.3,14.6,11.1
			c0.8,3.6,0.1,5.7-5.7,19l-5.6,12.7l-2.4,1.5c-4.3,2.7-5.1,2.6-19.1-2.3c-6.9-2.4-12.6-4.3-12.8-4.2c-1.4,1.2-2.6,2.6-3.8,4
			c-2.4,2.6-4.9,5-7.6,7.3c-2.3,1.9-4.1,3.8-4.2,4.2s1.6,5.7,3.8,11.7s4,12.2,4.1,13.6c0.3,3-0.8,6-3,8.1
			c-1.9,1.9-25.1,11.5-28.3,11.7c-3.2,0-6.3-1.2-8.6-3.3c-0.7-0.8-3.6-6.3-6.4-12.4s-5.4-11.2-5.8-11.4c-2.2-0.2-4.4-0.3-6.6-0.1
			c-3.2,0.1-7.9,0-10.3-0.2c-3.4-0.3-4.7-0.1-5.2,0.6c-0.4,0.5-3.1,5.8-6.1,11.7c-6.6,13.1-7.7,14.3-13.4,14.7
			c-1.6,0.1-4-0.7-15.3-5.6C160.7,499.4,157.1,497.7,156.2,496.7L156.2,496.7z M201.2,445.3c12.1,3.9,25.2,3.3,36.9-1.7
			c9.1-3.6,17.1-9.7,23.1-17.5c4.1-5.1,9.5-18,10.4-24.5c2.9-19.4-4.7-38.9-19.9-51.2c-3.6-3-4.6-3.6-12.6-7
			c-7.6-3.3-9.3-3.8-13.5-4.4c-20.6-2.9-41,6-53,23c-10.5,15.1-12.7,34.6-5.6,51.6c3.8,9.2,9.9,17.3,17.9,23.4
			c3.4,2.4,6.9,4.5,10.6,6.4C195.9,443.6,198.5,444.5,201.2,445.3L201.2,445.3z M197.7,419.2c-11.2-8.6-15.6-23.4-10.9-36.8
			c3-9,9.8-16.1,18.6-19.4c16.5-6.8,35.4,1.1,42.2,17.6c0,0,0,0,0,0c5.5,13.6,2.1,28.1-8.9,37.4c-9,7.9-21.6,10.1-32.7,5.7
			C203,422.7,200.2,421.2,197.7,419.2L197.7,419.2z M217.3,412.7c4.1,0.2,11.2-1.9,14.5-4.8c2.3-2,2.8-2.8,4.7-7.2
			c2-4.7,0.8-5.2,0.4-8.9c-0.7-7.4-4.3-12.6-11-15.8c-5.4-2.6-9.2-2.8-14.7-0.9c-6.8,2.2-11.7,8-12.8,15c-1,5.6,0.6,11.4,4.4,15.7
			C206.4,410.1,211.7,412.6,217.3,412.7z"/>
	</g>
	<ellipse id="path3012" class="st5" cx="217.8" cy="397" rx="84.6" ry="82.6"/>
	<path id="path3010-9" class="st6" d="M217.9,313.7c-14.1-0.1-27.9,3.2-40.5,9.5c-23.3,11.9-38.3,30-46.4,56
		c-1.8,5.8-3.2,8.8-3.2,21c-0.1,7,0.8,13.9,2.5,20.6c4.1,17.9,12.1,32.5,24.6,44.9c14.2,14.2,31.8,23,50.8,25.5
		c27.5,3.6,55.2-5.8,74.8-25.5c27.3-27.4,34.1-68.6,17.1-102.7c-10.2-20.5-29.8-37.5-51.3-44.8C237.1,315.3,227.5,313.7,217.9,313.7
		z"/>
	<g id="g2989" class="st2">
		<circle id="path3010" class="st0" cx="217.8" cy="397.4" r="87.3"/>
		<path id="path2997" class="st7" d="M205.7,486c-19-2.5-36.6-11.3-50.8-25.5c-12.4-12.4-20.5-27-24.6-44.9
			c-1.7-6.7-2.6-13.7-2.5-20.6c0-12.2,1.4-15.1,3.2-21c8.2-26,23.2-44.1,46.5-56c21.4-10.7,46.2-12.4,68.9-4.9
			c21.5,7.2,41,24.3,51.3,44.8c17,34.1,10.2,75.3-17.1,102.7C260.8,480.1,233.2,489.5,205.7,486L205.7,486z M180.6,473.2
			c-0.1-0.5-0.4-2.5-0.6-4.4c-0.4-3-0.2-3.5,1.8-5.5c2.8-2.8,5.3-2.8,17.3,0c5,1.2,12.4,2.7,16.4,3.3c9.1,1.4,31.2,1.6,39.3,0.3
			c6.5-1,17.5-4,20.3-5.4c3.1-1.6,13.5-14,12.5-15c-0.2-0.2-3.7,0.4-7.7,1.4c-13.9,3.5-20.4,0.2-34-0.2c-23.5-0.7-42.8-5.6-74.4-19
			c-18.9-8-23.6-4.6-28.4,0.1c-3.6,3.6-3.7,5.3-0.6,10.9c7.5,13.3,18.4,24.4,31.5,32.2C178.7,474.7,181,475.2,180.6,473.2
			L180.6,473.2z M299.8,422.6c0.7-2.1,1.3-4.3,1.7-6.6c0.9-4.5,0.9-5-0.1-5.9c-0.6-0.5-1.4-0.8-2.1-0.9c-2,0-13.3-5.1-19.3-8.8
			c-11.6-7-26.3-18.9-46.9-38.1c-20.3-18.9-26.4-23.7-34.2-27.4c-9.3-4.3-21.6-5-34-2c-4.6,1.1-5.8,1.8-8.6,4.5
			c-6.5,6.6-11.9,14.1-16,22.4c-6.1,12.6-5.8,21.7,1.9,15.1c5.9-5,11.7-5.5,17.6-6.5c3.8-0.7,9.5,0.2,14.1,1.2
			c9.4,2.1,16.1,8.9,40.4,26.2c27.5,19.5,32.4,19.5,51.2,27c8.1,3.2,29,1.2,32.1,1.2C298.5,424.2,299.4,423.6,299.8,422.6
			L299.8,422.6z M297.4,377.9c2.3-2,2.5-2.6,2.2-4.9c-0.5-4.1-5.1-14.5-9.2-21.1c-4.8-7.8-16.7-20-24.4-25
			c-10.5-7-22.3-11.8-34.7-13.9c-11.4-2-34.9-0.5-35.8,2.4c-0.2,0.6,1,0.8,4.1,0.8c19,0,35.2,5.3,47.5,15.5
			c7.3,6,12.4,11.8,20.8,23.4c14.1,19.4,19.6,24.9,25.3,25C294.1,380.1,295.9,379.1,297.4,377.9L297.4,377.9z"/>
	</g>
</g>
<image style="overflow:visible;" width="182" height="169" xlink:href="earth-engine-new.png"  transform="matrix(1.6901 0 0 1.6901 66.9646 252.7099)">
</image>
</svg>
